<svg xmlns="http://www.w3.org/2000/svg" width="512" height="512" viewBox="0 0 512 512">
  <path d="M151.643 471.594c-17.463-2.89-33.922-12.865-44.097-26.726-5.855-7.976-9.876-17.48-14.752-34.868-2.545-9.075-5.064-17.85-5.6-19.5-.534-1.65-2.604-9.3-4.6-17-1.994-7.7-5.865-22.55-8.603-33-2.73-10.45-5.65-21.7-6.48-25-6.55-26.06-18.24-62.056-24.63-75.826-3.42-7.388-4.84-9.33-8.66-11.922-12.3-8.338-20.17-17.123-26.09-29.138-6.99-14.196-8.85-31.47-5.01-46.514 2.8-10.942 4.42-14.41 11.51-24.6 5.32-7.638 7.63-9.94 15.25-15.206 15-10.374 26.24-13.744 43.61-13.076 18.1.695 31.36 6.402 52.57 22.62 15.05 11.504 30.58 32.21 41.6 55.445 3.3 6.96 6.45 12.666 7 12.678.55.02 3.9-5.93 7.448-13.21 15.08-30.99 31.158-48.47 50.684-55.11 10.04-3.41 21.536-4.76 31.034-3.62 10.55 1.26 14.377 2.4 24.16 7.22 18.87 9.3 30.78 25.69 45.775 63.03 1.05 2.61 2.36 4.74 2.91 4.73.55-.01 2.968-3.72 5.37-8.242 12.66-23.85 28.424-41.97 47.905-55.077 25.59-17.215 41.703-22.41 61.374-19.792 27.81 3.705 49.17 21.667 58.42 49.144 1.48 4.39 1.843 8.43 1.803 20-.046 13.13-.304 15.21-2.73 21.97-5.804 16.18-16.03 28.84-30.423 37.656-10.05 6.155-11.018 7.03-13.71 12.38-4.54 9.01-16.22 43.44-21.54 63.5-1.02 3.85-3.716 13.97-5.988 22.5-2.278 8.52-6.31 23.82-8.97 34-9.17 35.1-10.097 38.52-12.195 45-1.16 3.57-3 8.3-4.09 10.5-3.357 6.76-11.74 17.39-17.28 21.9-7.075 5.76-20.527 12.29-29.027 14.09-9.05 1.916-23.57 1.9-32.122-.04-9.93-2.25-27.38-11.156-36.92-18.84-13.06-10.52-26.81-28.13-36.105-46.235-2.08-4.057-4.243-7.377-4.81-7.38-.563-.01-4.163 6.35-8 14.13-3.832 7.77-9.536 17.99-12.672 22.7-10.85 16.29-26.92 31.66-40.03 38.28-12.416 6.264-29.27 8.79-43.265 6.47zm24.09-43.638c6.334-3.066 17.044-13.338 23.165-22.215 13.936-20.21 21.98-40.78 47.966-122.66 3.74-11.78 7.263-21.57 7.83-21.76.57-.19 6.092 15.47 12.316 34.92 14.597 45.63 19.497 58.79 29.125 78.27 12.166 24.61 23.158 36.99 39.738 44.76 5.638 2.65 7.94 3.17 13.77 3.14 8.357-.05 12.78-1.76 18.744-7.26 5.778-5.32 7.756-10.05 13.663-32.63 27.19-103.93 32.795-122.7 43.718-146.33 6.824-14.76 11.632-20.73 21.88-27.17 17.6-11.05 22.79-17.9 22.79-30.06 0-15.11-10.588-26.49-25.766-27.68-7.524-.59-12.562 1.23-25.333 9.16-21.9 13.587-33.47 27.716-46.31 56.56-8.49 19.07-20.28 56.04-30.93 97.026-1.79 6.875-3.62 12.91-4.07 13.415-1.25 1.394-4.03-5.91-13.97-36.73-25.81-80.033-28.63-87.956-38.21-107.684-6.31-12.974-12.53-19.71-20.58-22.285-6.64-2.126-10.29-2.16-17.05-.15-16.55 4.913-30.4 30.47-50.92 93.93-19.86 61.408-23.71 72.757-24.67 72.705-1.06-.06-1.97-3.14-10.92-36.918-14.99-56.578-28.32-92.84-41.48-112.79-9.47-14.367-22.4-26.328-35.78-33.12-6.35-3.226-8.3-3.746-13.84-3.694-15.58.15-27.49 12.21-27.49 27.84 0 9.964 4.65 18.1 13.71 23.995 22.224 14.454 31.17 36.41 60.29 147.98 11.49 44.023 17.496 65.59 20.07 72.08 3.516 8.852 9.565 14.46 18.924 17.542 4.3 1.412 14.52.28 19.59-2.17z" fill="#82bcfa"/>
  <path d="M156.143 430.125c-9.36-3.082-15.408-8.69-18.923-17.546-2.575-6.49-8.58-28.06-20.072-72.08-20.898-80.07-30.636-110.11-41.906-129.29-4.48-7.63-10-13.24-18.384-18.69-9.065-5.9-13.715-14.03-13.715-24 0-15.63 11.908-27.7 27.484-27.84 5.542-.05 7.492.47 13.84 3.69 33.93 17.22 52.427 52.15 77.262 145.91 8.94 33.77 9.85 36.85 10.91 36.91.96.05 4.81-11.3 24.66-72.71 20.52-63.47 34.37-89.02 50.92-93.94 6.76-2.007 10.41-1.975 17.05.15 8.05 2.575 14.27 9.31 20.58 22.283 9.58 19.73 12.4 27.65 38.21 107.685 9.94 30.82 12.71 38.125 13.96 36.732.45-.5 2.28-6.54 4.07-13.413 10.65-40.98 22.44-77.95 30.93-97.024 12.84-28.842 24.4-42.97 46.3-56.56 12.77-7.92 17.81-9.74 25.33-9.15 15.17 1.188 25.76 12.56 25.76 27.68 0 12.157-5.19 19-22.79 30.058-10.25 6.436-15.058 12.41-21.88 27.17-10.92 23.63-16.53 42.4-43.72 146.33-5.907 22.58-7.885 27.3-13.663 32.63-5.96 5.495-10.384 7.21-18.74 7.26-5.83.034-8.13-.49-13.77-3.13-16.58-7.776-27.57-20.157-39.737-44.763-9.623-19.47-14.523-32.64-29.12-78.262-6.223-19.45-11.745-35.11-12.314-34.92-.57.19-4.09 9.98-7.83 21.76-25.99 81.88-34.03 102.45-47.968 122.66-6.12 8.88-16.83 19.15-23.168 22.216-5.07 2.453-15.29 3.585-19.59 2.17z" fill="#5a95b3"/>
</svg>