<?xml version="1.0" encoding="UTF-8" standalone="no"?>
<!-- Created with Inkscape (http://www.inkscape.org/) -->

<svg
   xmlns:dc="http://purl.org/dc/elements/1.1/"
   xmlns:cc="http://creativecommons.org/ns#"
   xmlns:rdf="http://www.w3.org/1999/02/22-rdf-syntax-ns#"
   xmlns:svg="http://www.w3.org/2000/svg"
   xmlns="http://www.w3.org/2000/svg"
   xmlns:sodipodi="http://sodipodi.sourceforge.net/DTD/sodipodi-0.dtd"
   xmlns:inkscape="http://www.inkscape.org/namespaces/inkscape"
   width="1323.9412"
   height="570.52612"
   viewBox="0 0 1323.9411 570.52614"
   id="svg2"
   version="1.1"
   inkscape:version="0.91 r13725"
   sodipodi:docname="wavey logotype A stroke2path.svg">
  <defs
     id="defs4" />
  <sodipodi:namedview
     id="base"
     pagecolor="#ffffff"
     bordercolor="#666666"
     borderopacity="1.0"
     inkscape:pageopacity="0.0"
     inkscape:pageshadow="2"
     inkscape:zoom="0.49497475"
     inkscape:cx="733.90298"
     inkscape:cy="73.86426"
     inkscape:document-units="px"
     inkscape:current-layer="g4498"
     showgrid="false"
     units="px"
     width="512px"
     fit-margin-top="55"
     fit-margin-left="5"
     fit-margin-right="5"
     fit-margin-bottom="5" />
  <metadata
     id="metadata7">
    <rdf:RDF>
      <cc:Work
         rdf:about="">
        <dc:format>image/svg+xml</dc:format>
        <dc:type
           rdf:resource="http://purl.org/dc/dcmitype/StillImage" />
        <dc:title></dc:title>
      </cc:Work>
    </rdf:RDF>
  </metadata>
  <g
     inkscape:label="Layer 1"
     inkscape:groupmode="layer"
     id="layer1"
     transform="translate(56.374069,-529.95121)">
    <g
       id="g4158"
       transform="translate(-131.73315,381.71573)">
      <path
         style="fill:#82bcfa"
         d="m 230.84807,575.6918 c -17.46275,-2.88946 -33.92232,-12.86501 -44.09688,-26.72553 -5.85461,-7.97558 -9.87603,-17.4808 -14.75181,-34.86803 -2.54484,-9.075 -5.06456,-17.85 -5.59938,-19.5 -0.53482,-1.65 -2.60459,-9.3 -4.59948,-17 -1.9949,-7.7 -5.86671,-22.55 -8.60404,-33 -2.73732,-10.45 -5.65536,-21.7 -6.48452,-25 -6.54791,-26.06021 -18.23986,-62.05624 -24.62923,-75.82606 -3.42796,-7.38763 -4.84014,-9.3306 -8.66503,-11.92184 -12.30737,-8.33787 -20.173286,-17.12337 -26.088006,-29.13788 -6.98881,-14.19628 -8.84825,-31.47014 -5.00705,-46.51462 2.79374,-10.94201 4.41641,-14.40944 11.51202,-24.5996 5.31856,-7.63811 7.624996,-9.93913 15.242066,-15.20623 15.00218,-10.3738 26.2371,-13.74249 43.60793,-13.07545 18.09657,0.69492 31.35933,6.40158 52.56886,22.61919 15.04562,11.50445 30.57905,32.21042 41.59455,55.44527 3.3,6.96065 6.45,12.66577 7,12.67803 0.55,0.0123 3.89945,-5.93639 7.44322,-13.21925 15.07867,-30.98843 31.15813,-48.47359 50.68379,-55.1147 10.0398,-3.41476 21.53496,-4.75751 31.03293,-3.62497 10.54939,1.25791 14.37485,2.40118 24.16011,7.22048 18.86734,9.29229 30.7772,25.69055 45.77345,63.02388 1.04858,2.61044 2.3565,4.73924 2.9065,4.73067 0.55,-0.009 2.96637,-3.71938 5.3697,-8.24625 12.66122,-23.84836 28.42254,-41.97003 47.9038,-55.0777 25.58949,-17.2175 41.70166,-22.4144 61.37248,-19.79541 27.81504,3.70332 49.17178,21.6656 58.42922,49.14244 1.47846,4.38819 1.84293,8.43114 1.803,20 -0.0453,13.12794 -0.30353,15.20655 -2.72897,21.96682 -5.8041,16.17747 -16.03256,28.83733 -30.42301,37.65488 -10.0481,6.15683 -11.01479,7.02963 -13.70973,12.3783 -4.54009,9.01076 -16.21921,43.44513 -21.53733,63.5 -1.02093,3.85 -3.71574,13.975 -5.98845,22.5 -2.27271,8.525 -6.3071,23.825 -8.96531,34 -9.17101,35.10448 -10.09771,38.52391 -12.19547,45 -1.15802,3.575 -2.99849,8.3 -4.08993,10.5 -3.35348,6.75959 -11.74077,17.39074 -17.28004,21.90301 -7.07146,5.76036 -20.52378,12.29226 -29.02432,14.09301 -9.05103,1.91738 -23.56724,1.89932 -32.12359,-0.04 -9.93266,-2.25122 -27.38217,-11.15487 -36.92128,-18.83916 -13.06018,-10.52071 -26.81128,-28.12962 -36.10559,-46.23484 -2.08185,-4.05542 -4.24802,-7.37541 -4.81371,-7.37777 -0.56569,-0.002 -4.16569,6.35685 -8,14.13158 -3.83431,7.77473 -9.53785,17.98995 -12.67455,22.70049 -10.85153,16.29633 -26.92254,31.66467 -40.03333,38.28298 -12.41451,6.26682 -29.27152,8.78941 -43.26359,6.47422 z"
         id="path4162"
         inkscape:connector-curvature="0"
         sodipodi:nodetypes="cssssssssssssssscssssscsssssssssssssssssscssscc" />
      <path
         style="fill:#5a95b3"
         d="m 235.34807,534.22308 c -9.35897,-3.08167 -15.40737,-8.69007 -18.9227,-17.54612 -2.57498,-6.48707 -8.58055,-28.05319 -20.07193,-72.07872 -20.89794,-80.06369 -30.63603,-110.10791 -41.90604,-129.28962 -4.47886,-7.62307 -9.99879,-13.23439 -18.38404,-18.6884 -9.06481,-5.89601 -13.71529,-14.0314 -13.71529,-23.99306 0,-15.63116 11.9086,-27.69415 27.48435,-27.84068 5.54207,-0.0521 7.49203,0.46777 13.84118,3.69043 33.92957,17.22177 52.4254,52.15231 77.26072,145.91179 8.94588,33.77289 9.85666,36.85321 10.91375,36.91114 0.96014,0.0526 4.81062,-11.29669 24.66546,-72.7016 20.52093,-63.46493 34.37381,-89.01905 50.92107,-93.93306 6.75846,-2.00704 10.40707,-1.97523 17.04864,0.14868 8.05508,2.57594 14.27562,9.31176 20.57966,22.28438 9.5868,19.72799 12.3983,27.65143 38.20963,107.68337 9.93983,30.81997 12.71714,38.1242 13.96653,36.7315 0.4514,-0.50318 2.28325,-6.53987 4.07076,-13.41487 10.65552,-40.98231 22.44071,-77.95171 30.92976,-97.02469 12.83873,-28.84572 24.40619,-42.97478 46.30503,-56.55924 12.77026,-7.92175 17.80905,-9.74244 25.33287,-9.15364 15.17769,1.18778 25.76471,12.56131 25.76471,27.67878 0,12.15784 -5.18983,19.00319 -22.78916,30.05879 -10.24798,6.4376 -15.05623,12.40864 -21.87959,27.17075 -10.92274,23.63103 -16.5297,42.39803 -43.71835,146.32925 -5.90704,22.58023 -7.88457,27.30282 -13.66324,32.62941 -5.96394,5.49737 -10.38616,7.21072 -18.74378,7.2621 -5.8294,0.0358 -8.13207,-0.48772 -13.76959,-3.13086 -16.58066,-7.7738 -27.57238,-20.15465 -39.73853,-44.76065 -9.6275,-19.47159 -14.52781,-32.6395 -29.12521,-78.26401 -6.22327,-19.45098 -11.74545,-35.10973 -12.31479,-34.91995 -0.5677,0.18923 -4.09142,9.98304 -7.83049,21.76401 -25.98719,81.87994 -34.03055,102.44875 -47.96593,122.66045 -6.12104,8.87786 -16.83164,19.14978 -23.16397,22.21521 -5.067,2.45289 -15.29168,3.58495 -19.59149,2.16913 z"
         id="path4160"
         inkscape:connector-curvature="0" />
    </g>
    <g
       id="g4508"
       transform="translate(-58.876004,-19.712843)">
      <g
         transform="matrix(5.9507842,0,0,5.9507842,-2387.5284,-1146.5592)"
         style="color:#000000;font-style:normal;font-weight:normal;font-size:35px;line-height:125%;font-family:sans-serif;text-align:start;letter-spacing:0px;word-spacing:0px;text-anchor:start;clip-rule:nonzero;display:inline;overflow:visible;visibility:visible;opacity:1;isolation:auto;mix-blend-mode:normal;color-interpolation:sRGB;color-interpolation-filters:linearRGB;solid-color:#000000;solid-opacity:1;fill:#5a95b3;fill-opacity:1;fill-rule:nonzero;stroke:#82bcfa;stroke-width:15.48462772;stroke-linecap:butt;stroke-linejoin:miter;stroke-miterlimit:4;stroke-dasharray:none;stroke-dashoffset:0;stroke-opacity:1;color-rendering:auto;image-rendering:auto;shape-rendering:auto;text-rendering:auto;enable-background:accumulate"
         id="g4498">
        <path
           style="color:#000000;font-style:normal;font-variant:normal;font-weight:100;font-stretch:normal;font-size:90px;line-height:125%;font-family:'AR CENA';-inkscape-font-specification:'AR CENA Thin';text-indent:0;text-align:start;text-decoration:none;text-decoration-line:none;text-decoration-style:solid;text-decoration-color:#000000;letter-spacing:0px;word-spacing:0px;text-transform:none;direction:ltr;block-progression:tb;writing-mode:lr-tb;baseline-shift:baseline;text-anchor:start;white-space:normal;clip-rule:nonzero;display:inline;overflow:visible;visibility:visible;opacity:1;isolation:auto;mix-blend-mode:normal;color-interpolation:sRGB;color-interpolation-filters:linearRGB;solid-color:#000000;solid-opacity:1;fill:#82bcfa;fill-opacity:1;fill-rule:nonzero;stroke:none;stroke-width:15.48462772;stroke-linecap:butt;stroke-linejoin:miter;stroke-miterlimit:4;stroke-dasharray:none;stroke-dashoffset:0;stroke-opacity:1;color-rendering:auto;image-rendering:auto;shape-rendering:auto;text-rendering:auto;enable-background:accumulate"
           d="m 497.33203,302.57422 c -5.22856,0 -9.79309,2.33896 -13.96289,5.61523 -4.34585,3.4146 -7.99805,8.0832 -7.99805,14.00782 0,2.01231 0.83903,4.03137 1.93946,5.83398 -4.03011,4.23613 -6.6211,9.64917 -6.6211,15.40625 0,5.51581 2.8834,9.98037 6.16602,12.75391 4.03168,3.40644 8.5649,4.14941 12.52148,4.07617 2.50976,-0.0466 5.06442,-0.49698 7.53321,-1.35352 1.97337,1.33922 4.28377,2.34571 6.54296,2.34571 3.22631,0 6.22306,-1.30946 8.47266,-3.02344 l 0.0195,-0.0156 0.0215,-0.0176 c 2.42428,-1.8733 4.98828,-5.23697 4.98828,-9.36523 l 0,-1.03711 -0.27344,-1 c -0.33735,-1.23697 -0.67346,-2.44423 -1.01172,-3.63281 -0.17602,-0.80798 -0.23337,-1.39698 -0.23633,-1.6582 0.11261,-2.33417 0.22544,-4.4122 0.33594,-6.125 0.13378,-2.07351 0.19531,-4.35768 0.19531,-6.88672 0,-6.02239 -0.5992,-11.08571 -2.67578,-15.62696 -2.70959,-5.96778 -9.40124,-10.29687 -15.95703,-10.29687 z m 8.85742,15.32812 0.0273,0.0977 c -0.003,-0.0116 -0.0122,-0.0254 -0.0156,-0.0371 -0.007,-0.0243 -0.004,-0.036 -0.0117,-0.0606 z"
           id="path4500"
           inkscape:connector-curvature="0"
           sodipodi:nodetypes="csscssccscccsccccssccccccc" />
        <path
           style="color:#000000;font-style:normal;font-variant:normal;font-weight:100;font-stretch:normal;font-size:90px;line-height:125%;font-family:'AR CENA';-inkscape-font-specification:'AR CENA Thin';text-indent:0;text-align:start;text-decoration:none;text-decoration-line:none;text-decoration-style:solid;text-decoration-color:#000000;letter-spacing:0px;word-spacing:0px;text-transform:none;direction:ltr;block-progression:tb;writing-mode:lr-tb;baseline-shift:baseline;text-anchor:start;white-space:normal;clip-rule:nonzero;display:inline;overflow:visible;visibility:visible;opacity:1;isolation:auto;mix-blend-mode:normal;color-interpolation:sRGB;color-interpolation-filters:linearRGB;solid-color:#000000;solid-opacity:1;fill:#82bcfa;fill-opacity:1;fill-rule:nonzero;stroke:none;stroke-width:15.48462772;stroke-linecap:butt;stroke-linejoin:miter;stroke-miterlimit:4;stroke-dasharray:none;stroke-dashoffset:0;stroke-opacity:1;color-rendering:auto;image-rendering:auto;shape-rendering:auto;text-rendering:auto;enable-background:accumulate"
           d="m 517.47656,303.6543 c -2.4373,0 -5.13789,0.63192 -7.45703,2.125 -3.0843,1.95333 -4.9668,6.16692 -4.9668,9.21875 0,2.9086 0.37437,3.12017 0.81055,4.99414 0.43618,1.87396 1.0577,4.32342 1.87891,7.42578 l 0.008,0.0351 0.01,0.0332 c 1.70393,6.2072 3.41293,12.00539 5.1289,17.39844 l 0.002,0.006 0.002,0.006 c 0.9854,3.07938 1.80636,5.49064 2.5332,7.37696 0.36342,0.94316 0.69395,1.74579 1.08789,2.55273 0.39394,0.80695 0.31704,1.44256 2.35352,3.27539 l 0.29883,0.26953 0.32617,0.23829 c 1.09999,0.79999 2.3053,1.53861 3.90625,2.07226 l 0.45703,0.15234 0.47265,0.0957 c 1.37867,0.27573 2.57483,0.33008 3.85743,0.33008 2.27766,0 4.68537,-0.39347 6.97265,-1.53711 l 0.16797,-0.084 0.16602,-0.0937 c 3.12924,-1.7602 5.17606,-5.48647 5.58593,-8.49219 l -0.006,0.0352 c 0.48468,-3.44129 1.72346,-8.03903 3.80664,-13.55664 l 0.004,-0.0117 0.006,-0.0117 c 2.08989,-5.59187 4.20057,-10.18874 6.24024,-13.76367 0.19929,-0.30046 0.40112,-0.60589 0.54492,-0.82812 0.19919,-0.30785 0.10972,-0.003 0.71679,-1.2168 0.62317,-1.24633 1.26758,-2.72878 1.26758,-4.99219 0,-3.43154 -1.97801,-7.30495 -4.60937,-9.35156 -2.28661,-1.77848 -5.39121,-2.89063 -8.35352,-2.89063 -5.35073,0 -8.05822,3.30946 -10.00195,6.01758 -0.29198,0.40681 -0.53208,0.91364 -0.80859,1.34375 -0.8567,-2.33162 -2.39444,-4.54091 -4.25,-5.77734 -1.12029,-0.76424 -2.46073,-1.38289 -3.94532,-1.77149 -1.53972,-0.46734 -2.91381,-0.62304 -4.21289,-0.62304 z"
           id="path4502"
           inkscape:connector-curvature="0" />
        <path
           style="color:#000000;font-style:normal;font-variant:normal;font-weight:100;font-stretch:normal;font-size:90px;line-height:125%;font-family:'AR CENA';-inkscape-font-specification:'AR CENA Thin';text-indent:0;text-align:start;text-decoration:none;text-decoration-line:none;text-decoration-style:solid;text-decoration-color:#000000;letter-spacing:0px;word-spacing:0px;text-transform:none;direction:ltr;block-progression:tb;writing-mode:lr-tb;baseline-shift:baseline;text-anchor:start;white-space:normal;clip-rule:nonzero;display:inline;overflow:visible;visibility:visible;opacity:1;isolation:auto;mix-blend-mode:normal;color-interpolation:sRGB;color-interpolation-filters:linearRGB;solid-color:#000000;solid-opacity:1;fill:#82bcfa;fill-opacity:1;fill-rule:nonzero;stroke:none;stroke-width:15.48462772;stroke-linecap:butt;stroke-linejoin:miter;stroke-miterlimit:4;stroke-dasharray:none;stroke-dashoffset:0;stroke-opacity:1;color-rendering:auto;image-rendering:auto;shape-rendering:auto;text-rendering:auto;enable-background:accumulate"
           d="m 567.17773,302.93555 c -8.72542,0 -15.81249,6.09979 -20.90039,14.38672 -0.002,0.003 -0.004,0.006 -0.006,0.01 -0.001,0.002 -0.003,0.004 -0.004,0.006 -4.4801,7.26784 -7.08203,14.64277 -7.08203,22.04883 0,5.9684 2.36029,11.96012 6.74609,15.97266 l 0.0332,0.0312 0.0332,0.0293 c 4.26436,3.81071 9.99264,5.75 15.77929,5.75 5.84551,0 11.46681,-2.24705 16.4961,-5.87109 l 0.0117,-0.008 0.01,-0.008 c 5.54148,-4.02326 9.76367,-9.85658 9.76367,-16.61523 0,-3.19693 -1.54889,-6.7868 -3.88671,-8.97852 -0.62275,-0.58382 -1.47273,-0.93755 -2.23829,-1.39062 0.96123,-2.56746 1.625,-5.22813 1.625,-7.99219 0,-4.17485 -1.49849,-8.49594 -4.24804,-11.71289 -2.88583,-3.4878 -7.67096,-5.6582 -12.13282,-5.6582 z"
           id="path4504"
           inkscape:connector-curvature="0" />
        <path
           style="color:#000000;font-style:normal;font-variant:normal;font-weight:100;font-stretch:normal;font-size:90px;line-height:125%;font-family:'AR CENA';-inkscape-font-specification:'AR CENA Thin';text-indent:0;text-align:start;text-decoration:none;text-decoration-line:none;text-decoration-style:solid;text-decoration-color:#000000;letter-spacing:0px;word-spacing:0px;text-transform:none;direction:ltr;block-progression:tb;writing-mode:lr-tb;baseline-shift:baseline;text-anchor:start;white-space:normal;clip-rule:nonzero;display:inline;overflow:visible;visibility:visible;opacity:1;isolation:auto;mix-blend-mode:normal;color-interpolation:sRGB;color-interpolation-filters:linearRGB;solid-color:#000000;solid-opacity:1;fill:#82bcfa;fill-opacity:1;fill-rule:nonzero;stroke:none;stroke-width:15.48462772;stroke-linecap:butt;stroke-linejoin:miter;stroke-miterlimit:4;stroke-dasharray:none;stroke-dashoffset:0;stroke-opacity:1;color-rendering:auto;image-rendering:auto;shape-rendering:auto;text-rendering:auto;enable-background:accumulate"
           d="m 587.44141,302.48438 c -2.72649,0 -5.77167,0.84046 -8.15625,2.6289 -3.02462,2.26846 -4.53711,6.37175 -4.53711,9.52344 0,5.49853 1.7941,10.8687 4.80273,19.71094 0.004,0.0107 0.006,0.0186 0.01,0.0293 0.005,0.0141 0.007,0.0211 0.0117,0.0352 2.01778,6.09948 3.88312,11.01984 5.69531,15.28125 -0.67819,2.21941 -1.4381,4.671 -1.71485,5.72266 l -0.008,0.0312 -0.008,0.0293 c -0.93961,3.69134 -1.49805,6.93793 -1.49805,10.10156 0,3.69152 1.64234,7.63843 4.24805,10.24415 l 0.0606,0.0605 0.0625,0.0586 c 2.55787,2.44665 6.23612,3.96797 9.49218,4.11914 2.67468,0.12414 5.0326,-0.52786 7.32227,-2.51367 1.28894,-1.11788 1.98002,-1.95787 2.4153,-2.69755 1.28018,-2.14493 1.21388,-4.58363 1.20062,-7.09918 -0.0231,-6.39977 0.94488,-9.51118 3.72584,-18.26187 2.02318,-6.24053 4.62098,-13.25562 7.79687,-21.01953 10e-4,-0.004 0.002,-0.006 0.004,-0.01 1.34356,-3.2409 2.39047,-5.63913 3.09961,-7.23437 0.35618,-0.80126 0.62632,-1.39879 0.82226,-1.83399 0.098,-0.21759 0.17362,-0.38785 0.25391,-0.57226 0.0401,-0.0922 0.0805,-0.17945 0.14844,-0.34961 0.034,-0.0851 0.0743,-0.18449 0.14648,-0.39453 0.0721,-0.2096 0.22382,-0.13791 0.38672,-1.76563 l 0,-0.002 c 0.4902,-4.9124 -2.77569,-8.54127 -5.24414,-10.25195 -2.15072,-1.52427 -4.88795,-2.75977 -8.03906,-2.75977 -5.04116,0 -7.99474,3.15813 -9.93164,5.82422 -0.27668,0.38083 -0.4889,0.84688 -0.74805,1.24609 -0.0757,-0.22877 -0.0287,-0.32378 -0.13281,-0.58398 l -0.19922,-0.49805 -0.26563,-0.46679 c -1.16537,-2.0394 -3.16839,-3.88718 -5.41797,-4.92383 -1.79321,-0.88893 -3.83498,-1.4082 -5.80468,-1.4082 z m 12.36132,10.0039 0.11133,0.74805 c -0.008,-0.0793 -0.0546,-0.2003 -0.0625,-0.2793 -0.0264,-0.15237 -0.0187,-0.31801 -0.0488,-0.46875 z"
           id="path4506"
           inkscape:connector-curvature="0"
           sodipodi:nodetypes="csscccccccsccccscccccscccccccsccccccccccccc" />
      </g>
      <g
         id="flowRoot4162"
         style="color:#000000;font-style:normal;font-weight:normal;font-size:35px;line-height:125%;font-family:sans-serif;text-align:start;letter-spacing:0px;word-spacing:0px;text-anchor:start;clip-rule:nonzero;display:inline;overflow:visible;visibility:visible;opacity:1;isolation:auto;mix-blend-mode:normal;color-interpolation:sRGB;color-interpolation-filters:linearRGB;solid-color:#000000;solid-opacity:1;fill:#5a95b3;fill-opacity:1;fill-rule:nonzero;stroke:none;stroke-width:5.78304052;stroke-linecap:butt;stroke-linejoin:miter;stroke-miterlimit:4;stroke-dasharray:none;stroke-dashoffset:0;stroke-opacity:1;color-rendering:auto;image-rendering:auto;shape-rendering:auto;text-rendering:auto;enable-background:accumulate"
         transform="matrix(5.9507842,0,0,5.9507842,-2387.5284,-1146.5592)">
        <path
           id="path4243"
           style="color:#000000;font-style:normal;font-variant:normal;font-weight:100;font-stretch:normal;font-size:90px;font-family:'AR CENA';-inkscape-font-specification:'AR CENA Thin';clip-rule:nonzero;display:inline;overflow:visible;visibility:visible;isolation:auto;mix-blend-mode:normal;color-interpolation:sRGB;color-interpolation-filters:linearRGB;solid-color:#000000;solid-opacity:1;fill:#5a95b3;fill-opacity:1;fill-rule:nonzero;stroke:none;stroke-width:5.78304052;stroke-linecap:butt;stroke-linejoin:miter;stroke-miterlimit:4;stroke-dasharray:none;stroke-dashoffset:0;stroke-opacity:1;color-rendering:auto;image-rendering:auto;shape-rendering:auto;text-rendering:auto;enable-background:accumulate"
           d="m 489.23273,352.52727 q -4.41,0 -7.38,-2.25 -3.42,-2.61 -3.42,-6.84 0,-7.2 6.93,-12.33 5.67,-4.23 13.59,-5.58 l 0.09,-2.16 q 0,-2.34 -0.27,-3.24 -0.54,-1.89 -2.25,-1.89 -2.34,0 -4.14,2.34 -4.05,5.22 -5.4,5.22 -1.44,0 -2.7,-0.99 -1.17,-1.08 -1.17,-2.61 0,-3.96 5.04,-7.92 5.04,-3.96 9.18,-3.96 6.3,0 8.91,5.76 1.98,4.32 1.98,12.42 0,3.6 -0.18,6.39 -0.18,2.79 -0.36,6.57 0,1.53 0.45,3.51 0.54,1.89 1.08,3.87 0,1.71 -1.98,3.24 -1.89,1.44 -3.78,1.44 -1.71,0 -2.88,-1.26 -1.17,-1.26 -1.71,-3.06 -4.32,3.33 -9.63,3.33 z m -2.16,-10.17 q 0,2.16 2.7,2.16 2.52,0 5.49,-1.62 2.97,-1.62 3.6,-3.87 0.18,-0.81 0.18,-1.8 0,-0.99 0,-1.53 l 0,-1.98 q -3.78,0 -7.56,2.34 -4.41,2.7 -4.41,6.3 z"
           inkscape:connector-curvature="0" />
        <path
           id="path4245"
           style="color:#000000;font-style:normal;font-variant:normal;font-weight:100;font-stretch:normal;font-size:90px;font-family:'AR CENA';-inkscape-font-specification:'AR CENA Thin';clip-rule:nonzero;display:inline;overflow:visible;visibility:visible;isolation:auto;mix-blend-mode:normal;color-interpolation:sRGB;color-interpolation-filters:linearRGB;solid-color:#000000;solid-opacity:1;fill:#5a95b3;fill-opacity:1;fill-rule:nonzero;stroke:none;stroke-width:5.78304052;stroke-linecap:butt;stroke-linejoin:miter;stroke-miterlimit:4;stroke-dasharray:none;stroke-dashoffset:0;stroke-opacity:1;color-rendering:auto;image-rendering:auto;shape-rendering:auto;text-rendering:auto;enable-background:accumulate"
           d="m 540.69586,312.20727 q 1.98,0 3.6,1.26 1.62,1.26 1.62,3.24 0,0.63 -0.45,1.53 -0.09,0.18 -0.99,1.53 -3.51,6.12 -6.84,15.03 -3.33,8.82 -4.23,15.21 -0.27,1.98 -1.71,2.79 -1.44,0.72 -3.51,0.72 -1.44,0 -2.34,-0.18 -0.81,-0.27 -1.8,-0.99 -0.9,-0.81 -3.78,-9.81 -2.52,-7.92 -5.04,-17.1 -2.43,-9.18 -2.43,-10.44 0,-1.89 1.35,-2.7 1.35,-0.9 3.33,-0.9 1.26,0 2.07,0.27 0.9,0.18 1.8,0.81 1.53,0.99 1.53,2.79 0,4.32 1.62,11.52 1.26,5.67 3.15,11.34 2.61,-8.82 5.04,-14.76 4.59,-11.16 8.01,-11.16 z"
           inkscape:connector-curvature="0" />
        <path
           id="path4247"
           style="color:#000000;font-style:normal;font-variant:normal;font-weight:100;font-stretch:normal;font-size:90px;font-family:'AR CENA';-inkscape-font-specification:'AR CENA Thin';clip-rule:nonzero;display:inline;overflow:visible;visibility:visible;isolation:auto;mix-blend-mode:normal;color-interpolation:sRGB;color-interpolation-filters:linearRGB;solid-color:#000000;solid-opacity:1;fill:#5a95b3;fill-opacity:1;fill-rule:nonzero;stroke:none;stroke-width:5.78304052;stroke-linecap:butt;stroke-linejoin:miter;stroke-miterlimit:4;stroke-dasharray:none;stroke-dashoffset:0;stroke-opacity:1;color-rendering:auto;image-rendering:auto;shape-rendering:auto;text-rendering:auto;enable-background:accumulate"
           d="m 561.14695,345.50727 q 5.13,0 8.37,-3.6 2.97,-3.96 5.94,-7.92 1.98,0 3.42,1.35 1.44,1.35 1.44,3.33 0,5.58 -6.57,10.35 -6.12,4.41 -11.97,4.41 -6.39,0 -10.62,-3.78 -4.23,-3.87 -4.23,-10.26 0,-8.37 5.94,-18 6.57,-10.71 14.31,-10.71 3.87,0 6.21,2.88 2.43,2.79 2.43,6.75 0,7.29 -6.57,13.32 -5.76,5.31 -13.59,7.2 0.99,4.68 5.49,4.68 z m 7.02,-25.92 q 0,-1.35 -1.08,-1.35 -2.7,0 -6.12,5.58 -2.61,4.32 -3.87,8.28 3.51,-1.89 6.93,-5.31 4.14,-4.14 4.14,-7.2 z"
           inkscape:connector-curvature="0" />
        <path
           id="path4249"
           style="color:#000000;font-style:normal;font-variant:normal;font-weight:100;font-stretch:normal;font-size:90px;font-family:'AR CENA';-inkscape-font-specification:'AR CENA Thin';clip-rule:nonzero;display:inline;overflow:visible;visibility:visible;isolation:auto;mix-blend-mode:normal;color-interpolation:sRGB;color-interpolation-filters:linearRGB;solid-color:#000000;solid-opacity:1;fill:#5a95b3;fill-opacity:1;fill-rule:nonzero;stroke:none;stroke-width:5.78304052;stroke-linecap:butt;stroke-linejoin:miter;stroke-miterlimit:4;stroke-dasharray:none;stroke-dashoffset:0;stroke-opacity:1;color-rendering:auto;image-rendering:auto;shape-rendering:auto;text-rendering:auto;enable-background:accumulate"
           d="m 582.49102,314.63727 c 0,-1.5 0.48,-2.61 1.44,-3.33 0.96,-0.72 2.13,-1.08 3.51,-1.08 0.9,0 1.74,0.21 2.52,0.63 0.84,0.36 1.5,0.96 1.98,1.8 0.12,0.3 0.21,0.75 0.27,1.35 0.12,0.6 0.18,1.17 0.18,1.71 0,2.22 0.33,4.68 0.99,7.38 0.72,2.64 2.19,6.72 4.41,12.24 1.44,-4.56 2.94,-9.15 4.5,-13.77 2.76,-7.02 5.31,-10.53 7.65,-10.53 1.14,0 2.34,0.45 3.6,1.35 1.32,0.9 2.0994,1.95596 1.98,3.15 -0.0119,0.1194 -1.56,3.33 -4.32,9.99 -3.24,7.92 -5.91,15.12 -8.01,21.6 -2.88,9.06 -3.73047,13.61551 -4.32,20.61 -0.0656,0.77782 0.25471,1.577 0.09,2.34 -0.12739,0.59015 -0.3539,1.22443 -0.81,1.62 -0.50168,0.43511 -1.22664,0.66079 -1.89,0.63 -1.63702,-0.076 -3.12,-0.66 -4.5,-1.98 -1.32,-1.32 -1.98,-2.91 -1.98,-4.77 0,-2.16 0.42,-4.89 1.26,-8.19 0.3,-1.14 1.11,-3.84 2.43,-8.1 -1.98,-4.32 -4.17,-10.11 -6.57,-17.37 -2.94,-8.64 -4.41,-14.4 -4.41,-17.28 z"
           inkscape:connector-curvature="0"
           sodipodi:nodetypes="ssscccscccscsccaaaacscccs" />
      </g>
    </g>
  </g>
</svg>
